<svg width="21" height="15" fill="none" xmlns="http://www.w3.org/2000/svg"><path d="M.18.618a1.076 1.076 0 0 0-.098.18.226.226 0 0 0 0 .043 1.282 1.282 0 0 0-.06.18v.065A1.364 1.364 0 0 0 0 1.318v12.373c.003.231.069.457.19.654L6.46 6.36.18.618ZM10.995 8.015 19.563.164A1.308 1.308 0 0 0 18.945 0H1.278A1.328 1.328 0 0 0 .66.16l8.572 7.852a1.309 1.309 0 0 0 1.763.003ZM20.231 1.086v-.062a1.179 1.179 0 0 0-.059-.183.216.216 0 0 0 0-.043 1.072 1.072 0 0 0-.098-.18l-6.31 5.742 6.3 7.995c.122-.197.187-.423.19-.654V1.318c0-.078-.008-.155-.023-.232Z" fill="#200C36"/><path d="M11.441 8.496a1.963 1.963 0 0 1-2.653 0L6.946 6.812.63 14.817c.197.12.423.183.654.183H18.95c.231 0 .457-.064.655-.183L13.28 6.812 11.44 8.496Z" fill="#200C36"/></svg>