<svg width="158" height="36" fill="none" xmlns="http://www.w3.org/2000/svg"><path d="M29.564 9.191H0V0h32.305v6.434a2.75 2.75 0 0 1-2.741 2.757ZM17.814 22.168H0v-9.193h20.558v6.432a2.752 2.752 0 0 1-2.744 2.76ZM6.396 35.145H0V25.95h9.137v6.432a2.751 2.751 0 0 1-2.741 2.762ZM41.168 27.195V7.9h11.779v1.364c0 1.2-.969 2.175-2.161 2.175h-5.86v4.332h5.299v1.14c0 1.325-1.069 2.4-2.385 2.4h-2.914v6.121a1.76 1.76 0 0 1-1.754 1.765h-2.004v-.003ZM53.758 23.258c0-.63.103-1.18.313-1.652a2.94 2.94 0 0 1 .915-1.168c.401-.306.85-.55 1.343-.733a9.086 9.086 0 0 1 1.718-.428l3.599-.657v-.487c0-.633-.169-1.12-.5-1.462-.333-.341-.814-.51-1.446-.51-.596 0-1.089.154-1.479.46-.392.306-.587.71-.587 1.209h-3.46c.08-1.453.617-2.635 1.612-3.544.995-.91 2.3-1.367 3.914-1.367 1.698 0 3.041.434 4.03 1.298.992.865 1.485 2.133 1.485 3.8v9.177H63.72a1.758 1.758 0 0 1-1.742-1.553l-.041-.34c-.87 1.469-2.19 2.202-3.962 2.202-1.251 0-2.267-.383-3.05-1.15-.779-.766-1.168-1.8-1.168-3.095Zm3.569-.238c0 .384.142.683.425.91.283.222.679.335 1.187.335a2.73 2.73 0 0 0 1.26-.303 2.43 2.43 0 0 0 .954-.862c.327-.463.493-1.027.493-1.696v-.383l-2.77.58c-.504.106-.888.267-1.154.486-.262.214-.395.526-.395.933ZM68.397 9.181a2.148 2.148 0 0 1 .629-1.562A2.089 2.089 0 0 1 70.487 7a2.218 2.218 0 0 1 1.565.597c.442.416.664.927.664 1.53 0 .6-.213 1.102-.635 1.506a2.135 2.135 0 0 1-1.532.606c-.605 0-1.116-.202-1.532-.606a2.028 2.028 0 0 1-.62-1.453Zm.375 18.013V13.228h3.572V25.43a1.76 1.76 0 0 1-1.754 1.764h-1.818ZM75.857 27.193V13.227h3.05l.34 2.198c.26-.68.726-1.242 1.399-1.684.676-.443 1.561-.663 2.66-.663v3.538c-1.134 0-2.052.274-2.755.826-.697.559-1.068 1.43-1.124 2.609v5.377a1.76 1.76 0 0 1-1.754 1.765h-1.816ZM85.166 13.227h3.811l2.114 8.396.242 1.495.307-1.494 2.356-8.396h3.158l2.356 8.396.295 1.494.254-1.494 2.129-8.396h3.811l-3.794 12.659a1.827 1.827 0 0 1-1.747 1.307h-2.38l-2.518-8.209-2.276 6.946a1.826 1.826 0 0 1-1.733 1.26h-2.214l-4.171-13.963ZM107.82 9.124c0-.591.21-1.093.629-1.506A2.089 2.089 0 0 1 109.972 7c.588 0 1.096.205 1.524.618.428.413.64.915.64 1.506 0 .6-.212 1.102-.634 1.506a2.137 2.137 0 0 1-1.533.607c-.605 0-1.115-.202-1.532-.607-.41-.404-.617-.906-.617-1.506Zm.375 18.07V13.227h3.572V25.43a1.76 1.76 0 0 1-1.753 1.765h-1.819ZM115.549 27.195V13.228h3.049l.281 1.854a4.013 4.013 0 0 1 1.47-1.569c.643-.398 1.405-.597 2.288-.597 1.443 0 2.547.463 3.315 1.393.765.927 1.148 2.199 1.148 3.815v7.231a1.83 1.83 0 0 1-1.824 1.837h-1.745v-8.233c0-.811-.168-1.43-.499-1.86-.333-.428-.82-.642-1.461-.642-.72 0-1.308.289-1.765.87-.458.58-.688 1.424-.688 2.53v5.504a1.831 1.831 0 0 1-1.824 1.836h-1.745v-.002ZM129.686 20.197c0-2.062.611-3.791 1.833-5.187 1.222-1.397 2.763-2.092 4.626-2.092.935 0 1.765.17 2.488.511.721.342 1.279.775 1.671 1.304V7.077h3.572v20.117h-1.541a1.754 1.754 0 0 1-1.733-1.5l-.056-.372c-.983 1.453-2.459 2.18-4.425 2.18-1.222 0-2.326-.323-3.309-.968-.983-.645-1.751-1.524-2.3-2.638-.552-1.111-.826-2.344-.826-3.7Zm3.663 0c0 1.176.334 2.127 1.004 2.852.667.728 1.502 1.09 2.5 1.09.936 0 1.754-.347 2.453-1.042.7-.696 1.051-1.635 1.051-2.82v-.16c-.009-.79-.186-1.483-.534-2.08-.348-.597-.782-1.037-1.305-1.325a3.391 3.391 0 0 0-1.665-.43c-.989 0-1.821.362-2.494 1.09-.673.727-1.01 1.67-1.01 2.825ZM146.639 22.955h2.214c.646 0 1.192.386 1.535.936.08.127.177.237.295.335.351.291.833.437 1.447.437.54 0 .962-.119 1.266-.356.301-.238.452-.562.452-.975 0-.448-.172-.802-.514-1.064-.342-.26-1.007-.484-1.99-.67-1.517-.262-2.639-.729-3.362-1.4-.723-.672-1.086-1.584-1.086-2.73 0-1.293.445-2.374 1.34-3.242.891-.87 2.155-1.304 3.79-1.304 1.473 0 2.678.407 3.614 1.218.935.811 1.431 1.878 1.484 3.197h-3.542c-.027-1.067-.555-1.602-1.585-1.602-.49 0-.865.125-1.134.378-.266.25-.398.582-.398.995 0 .44.171.775.513 1.01.343.235.983.43 1.925.591 1.632.28 2.793.76 3.483 1.447.688.687 1.034 1.622 1.034 2.805 0 .772-.142 1.453-.428 2.044a3.723 3.723 0 0 1-1.178 1.426 5.427 5.427 0 0 1-1.701.808 7.574 7.574 0 0 1-2.06.27c-1.683 0-2.994-.407-3.932-1.224-.939-.817-1.438-1.93-1.482-3.33Z" fill="#200C36"/></svg>