<?xml version="1.0" encoding="iso-8859-1"?>
<!-- Generator: Adobe Illustrator 23.0.6, SVG Export Plug-In . SVG Version: 6.00 Build 0)  -->
<svg version="1.1" id="Layer_1" xmlns="http://www.w3.org/2000/svg" xmlns:xlink="http://www.w3.org/1999/xlink" x="0px" y="0px"
	 width="340.317px" height="66.089px" viewBox="0 0 340.317 66.089" enable-background="new 0 0 340.317 66.089"
	 xml:space="preserve">
<g>
	<path fill="#110C1D" d="M313.236,44.115c0.583,4.003,4.659,10.191,14.268,10.191c8.663,0,12.813-5.897,12.813-10.847
		c0-5.168-3.349-9.026-9.682-10.409l-5.678-1.238c-2.694-0.582-4.004-2.111-4.004-4.222c0-2.402,2.329-4.659,5.824-4.659
		c5.532,0,6.988,4.004,7.279,5.824l6.042-2.257c-0.728-3.13-3.712-9.391-13.321-9.391c-6.843,0-12.449,5.096-12.449,11.065
		c0,4.95,3.276,8.663,8.736,9.828l5.969,1.31c2.912,0.655,4.513,2.329,4.513,4.513c0,2.475-2.111,4.659-5.969,4.659
		c-4.95,0-7.716-2.912-8.153-6.551L313.236,44.115z M309.67,18.199h-9.463l-15.142,15.506V0.51h-6.77v52.704h6.77V42.659
		l4.877-4.878l11.429,15.433h8.59l-15.214-20.237L309.67,18.199z M254.418,23.441c5.969,0,8.517,4.003,9.391,7.425l6.187-2.621
		c-1.456-5.314-6.26-11.138-15.578-11.138c-9.973,0-17.617,7.644-17.617,18.563c0,10.628,7.498,18.636,17.69,18.636
		c9.099,0,14.122-5.897,15.797-10.919l-6.043-2.621c-0.8,2.766-3.203,7.207-9.754,7.207c-5.678,0-10.701-4.295-10.701-12.303
		C243.79,27.517,248.886,23.441,254.418,23.441 M213.071,17.107c-10.483,0-17.908,7.935-17.908,18.563
		c0,10.701,7.425,18.636,17.908,18.636c10.482,0,17.908-7.935,17.908-18.636C230.979,25.042,223.553,17.107,213.071,17.107
		 M213.071,48.191c-5.824,0-10.92-4.368-10.92-12.521c0-8.08,5.096-12.448,10.92-12.448c5.823,0,10.919,4.368,10.919,12.448
		C223.99,43.823,218.894,48.191,213.071,48.191 M186.428,0.51h-6.843v52.704h6.843V0.51z M159.64,4.95
		c0,2.694,2.183,4.878,4.877,4.878c2.766,0,4.95-2.184,4.95-4.878c0-2.766-2.184-4.95-4.95-4.95C161.823,0,159.64,2.184,159.64,4.95
		 M167.938,18.199h-6.77v35.015h6.77V18.199z M142.897,48.482c0,2.111,0.218,3.931,0.364,4.732h6.624
		c-0.073-0.582-0.364-3.13-0.364-6.479V0.51h-6.77v22.639c-1.165-2.839-4.513-5.896-10.701-5.896c-9.9,0-16.597,8.444-16.597,18.344
		c0,10.41,6.333,18.563,16.597,18.563c5.46,0,9.172-2.911,10.847-6.26V48.482z M122.441,35.597c0-7.206,4.077-12.302,10.337-12.302
		c6.261,0,10.046,4.95,10.046,12.157s-3.858,12.666-10.119,12.666C126.154,48.118,122.441,42.804,122.441,35.597 M106.717,0.51
		h-6.843v52.704h6.843V0.51z M47.972,53.214v-25.26H23.294v6.406h17.908c-0.291,5.314-4.441,13.467-15.942,13.467
		c-9.245,0-17.981-6.77-17.981-20.455c0-13.686,9.027-20.311,18.272-20.311c8.007,0,14.049,4.368,16.379,11.793l6.479-2.766
		C45.424,6.77,36.761,0.51,25.551,0.51C12.812,0.51,0,9.901,0,27.372c0,17.47,12.084,26.934,25.041,26.934
		c8.663,0,14.268-4.295,16.525-8.372l0.655,7.28H47.972z"/>
	<path fill="none" stroke="#110C1D" stroke-width="5.82" d="M88.657,62.636c5.369-2.976,3.083-17.366-5.106-32.14
		C75.361,15.721,64.369,6.157,59,9.133c-5.369,2.976-3.083,17.366,5.106,32.141C72.296,56.048,83.288,65.612,88.657,62.636z"/>
</g>
<polygon fill="#F26722" points="73.829,54.105 76.212,55.963 78.083,53.593 80.84,54.825 82.087,52.073 85.059,52.606
	85.611,49.637 88.624,49.446 88.452,46.431 91.333,45.527 90.445,42.64 93.025,41.07 91.467,38.482 93.594,36.339 91.467,34.195
	93.025,31.607 90.445,30.036 91.333,27.15 88.451,26.246 88.622,23.23 85.609,23.04 85.057,20.07 82.085,20.604 80.839,17.853
	78.083,19.085 76.21,16.715 73.829,18.573 71.445,16.715 69.574,19.086 66.816,17.853 65.57,20.605 62.597,20.072 62.047,23.041
	59.033,23.232 59.205,26.248 56.324,27.152 57.213,30.038 54.633,31.608 56.191,34.196 54.062,36.339 56.191,38.483 54.633,41.071
	57.213,42.642 56.325,45.528 59.207,46.432 59.035,49.448 62.049,49.638 62.6,52.608 65.572,52.074 66.818,54.825 69.574,53.593
	71.447,55.963 "/>
<g>
	<path fill="#F78F1E" d="M73.829,51.352c8.292,0,15.014-6.722,15.014-15.014S82.12,21.324,73.829,21.324
		c-8.292,0-15.014,6.722-15.014,15.014S65.536,51.352,73.829,51.352"/>
	<path fill="none" stroke="#110C1D" stroke-width="5.82" d="M59,9.133c-5.369,2.976-3.083,17.366,5.106,32.14
		c7.862,14.184,18.307,23.565,23.88,21.66"/>
</g>
<g>
</g>
<g>
</g>
<g>
</g>
<g>
</g>
<g>
</g>
<g>
</g>
</svg>
