<?xml version="1.0" encoding="utf-8"?>
<!-- Generator: Adobe Illustrator 22.1.0, SVG Export Plug-In . SVG Version: 6.00 Build 0)  -->
<svg version="1.1" id="Layer_1" xmlns="http://www.w3.org/2000/svg" xmlns:xlink="http://www.w3.org/1999/xlink" x="0px" y="0px"
	 viewBox="0 0 41.7 60.8" style="enable-background:new 0 0 41.7 60.8;" xml:space="preserve">
<style type="text/css">
	.st0{fill:none;stroke:#110C1D;stroke-width:5.82;}
	.st1{fill:#F26722;}
	.st2{fill:#F78F1E;}
</style>
<path class="st0" d="M35.7,57.1c5.4-3,3.1-17.4-5.1-32.1C22.4,10.2,11.5,0.7,6.1,3.6S3,21,11.2,35.8C19.4,50.6,30.4,60.1,35.7,57.1z
	"/>
<polygon class="st1" points="20.9,48.6 23.3,50.5 25.2,48.1 27.9,49.3 29.2,46.6 32.1,47.1 32.7,44.1 35.7,44 35.5,40.9 38.4,40 
	37.5,37.1 40.1,35.6 38.6,33 40.7,30.8 38.6,28.7 40.1,26.1 37.5,24.5 38.4,21.7 35.5,20.8 35.7,17.7 32.7,17.5 32.1,14.6 
	29.2,15.1 27.9,12.4 25.2,13.6 23.3,11.2 20.9,13.1 18.5,11.2 16.7,13.6 13.9,12.4 12.7,15.1 9.7,14.6 9.1,17.5 6.1,17.7 6.3,20.8 
	3.4,21.7 4.3,24.5 1.7,26.1 3.3,28.7 1.1,30.8 3.3,33 1.7,35.6 4.3,37.1 3.4,40 6.3,40.9 6.1,44 9.1,44.1 9.7,47.1 12.7,46.6 
	13.9,49.3 16.7,48.1 18.5,50.5 "/>
<g>
	<path class="st2" d="M20.9,45.9c8.3,0,15-6.7,15-15s-6.7-15-15-15c-8.3,0-15,6.7-15,15S12.6,45.9,20.9,45.9"/>
	<path class="st0" d="M6.1,3.6C0.7,6.6,3,21,11.2,35.8C19.1,50,29.5,59.3,35.1,57.4"/>
</g>
</svg>
