<svg width="20" height="20" fill="none" xmlns="http://www.w3.org/2000/svg"><path d="M4.202 12.638a2.106 2.106 0 0 1-2.101 2.101A2.106 2.106 0 0 1 0 12.64c0-1.157.945-2.102 2.101-2.102h2.101v2.101ZM5.262 12.638c0-1.156.944-2.1 2.1-2.1 1.157 0 2.102.944 2.102 2.1v5.26c0 1.157-.945 2.102-2.101 2.102a2.106 2.106 0 0 1-2.101-2.101v-5.26ZM7.36 4.202a2.106 2.106 0 0 1-2.1-2.101C5.26.945 6.204 0 7.36 0c1.157 0 2.102.945 2.102 2.101v2.101H7.36ZM7.362 5.26c1.156 0 2.1.945 2.1 2.102a2.106 2.106 0 0 1-2.1 2.1H2.1A2.106 2.106 0 0 1 0 7.363C0 6.205.945 5.26 2.101 5.26h5.26ZM15.799 7.362c0-1.157.945-2.101 2.1-2.101 1.157 0 2.102.944 2.102 2.1A2.106 2.106 0 0 1 17.9 9.464h-2.101V7.362ZM14.74 7.362a2.106 2.106 0 0 1-2.102 2.1 2.106 2.106 0 0 1-2.1-2.1V2.1c0-1.156.944-2.101 2.1-2.101 1.156 0 2.101.945 2.101 2.101v5.26ZM12.638 15.798c1.156 0 2.101.945 2.101 2.101A2.106 2.106 0 0 1 12.64 20a2.106 2.106 0 0 1-2.102-2.101v-2.101h2.101ZM12.638 14.74a2.106 2.106 0 0 1-2.1-2.102c0-1.156.944-2.1 2.1-2.1h5.26c1.157 0 2.102.944 2.102 2.1a2.106 2.106 0 0 1-2.101 2.101h-5.26Z" fill="#200C36"/></svg>