<svg width="23" height="19" fill="none" xmlns="http://www.w3.org/2000/svg"><path fill-rule="evenodd" clip-rule="evenodd" d="M22.15 2.14c-.83.367-1.71.609-2.611.715A4.557 4.557 0 0 0 21.537.342a9.1 9.1 0 0 1-2.885 1.103 4.544 4.544 0 0 0-7.745 4.144A12.901 12.901 0 0 1 1.54.842 4.543 4.543 0 0 0 2.948 6.91a4.525 4.525 0 0 1-2.059-.57v.058a4.547 4.547 0 0 0 3.646 4.454 4.552 4.552 0 0 1-2.052.078 4.548 4.548 0 0 0 4.245 3.156A9.117 9.117 0 0 1 0 15.967a12.863 12.863 0 0 0 6.965 2.042c8.359 0 12.93-6.924 12.93-12.928 0-.198-.004-.394-.014-.588a9.236 9.236 0 0 0 2.267-2.354" fill="#200C36"/></svg>